<svg id="Layer_1" data-name="Layer 1" xmlns="http://www.w3.org/2000/svg" xmlns:xlink="http://www.w3.org/1999/xlink" viewBox="0 0 483.47 175.38"><defs><style>.cls-1{fill:none;}.cls-2{fill:#ad9166;}.cls-3{clip-path:url(#clip-path);}.cls-4{fill:#fff;}</style><clipPath id="clip-path" transform="translate(0 0)"><rect class="cls-1" width="483.47" height="175.38"/></clipPath></defs><title>Vector Smart Object</title><polygon class="cls-2" points="54.47 99.86 56.66 99.86 56.66 110.78 54.47 110.78 54.47 106.22 50.43 106.22 50.43 110.78 48.25 110.78 48.25 99.86 50.43 99.86 50.43 104.04 54.47 104.04 54.47 99.86"/><path class="cls-2" d="M75.65,106.57l-1.14-2.43-1.23,2.43Zm1,2.18H72.16l-1,2H68.67l5.57-10.94h.64l5.17,10.94H77.63Z" transform="translate(0 0)"/><polygon class="cls-2" points="100.4 110.78 94.25 104.4 94.25 110.78 92.07 110.78 92.07 99.84 92.75 99.84 98.79 105.96 98.79 99.84 100.98 99.84 100.98 110.78 100.4 110.78"/><g class="cls-3"><path class="cls-2" d="M117,108.6a3.29,3.29,0,0,0,0-6.57h-.91v6.57Zm0-8.76a5.37,5.37,0,0,1,3.85,1.59,5.56,5.56,0,0,1,1.61,3.87,5.24,5.24,0,0,1-.44,2.14,5,5,0,0,1-1.17,1.73,5.47,5.47,0,0,1-3.85,1.61h-3.09V99.84Z" transform="translate(0 0)"/><polygon class="cls-2" points="159.49 110.78 159.49 104.09 156.35 106.94 153.22 104.09 153.22 110.78 151.03 110.78 151.03 99.84 151.78 99.84 156.35 103.99 160.91 99.84 161.68 99.84 161.68 110.78 159.49 110.78"/><path class="cls-2" d="M181.14,106.57,180,104.13l-1.23,2.43Zm1,2.18h-4.53l-1,2h-2.45l5.57-10.94h.64l5.16,10.94h-2.42Z" transform="translate(0 0)"/><path class="cls-2" d="M200.49,108.6a3.29,3.29,0,0,0,0-6.57h-.91v6.57Zm0-8.76a5.37,5.37,0,0,1,3.85,1.59,5.46,5.46,0,0,1,1.17,6,5,5,0,0,1-1.17,1.73,5.47,5.47,0,0,1-3.85,1.61H197.4V99.84Z" transform="translate(0 0)"/><polygon class="cls-2" points="225.87 102.03 220.77 102.03 220.77 104.04 224.98 104.04 224.98 106.23 220.77 106.23 220.77 108.6 225.83 108.6 225.83 110.78 218.59 110.78 218.59 99.84 225.87 99.84 225.87 102.03"/><path class="cls-2" d="M257.52,108.6a3.29,3.29,0,0,0,0-6.57h-.91v6.57Zm0-8.76a5.37,5.37,0,0,1,3.85,1.59,5.45,5.45,0,0,1,1.17,6,5,5,0,0,1-1.17,1.73,5.47,5.47,0,0,1-3.85,1.61h-3.09V99.84Z" transform="translate(0 0)"/><path class="cls-2" d="M278,105.31a3.42,3.42,0,1,0,3.42-3.42,3.42,3.42,0,0,0-3.42,3.42m9.08,0a5.66,5.66,0,1,1-5.67-5.66,5.68,5.68,0,0,1,5.67,5.66" transform="translate(0 0)"/><path class="cls-2" d="M306.58,106.74a4.24,4.24,0,0,1-8.47,0V99.84h2.19v6.9a2.05,2.05,0,0,0,2.06,2,2,2,0,0,0,1.44-.59,2.07,2.07,0,0,0,.61-1.43h0V99.84h2.18v6.9Z" transform="translate(0 0)"/><path class="cls-2" d="M325.8,104h4.73v6.74h-2.18v-1.09A5.7,5.7,0,0,1,324.9,111,5.64,5.64,0,0,1,325,99.69h0a5.63,5.63,0,0,1,3.48,1.25l-1.58,1.54a3.46,3.46,0,0,0-1.92-.61h0a3.45,3.45,0,0,0-2.45,1,3.4,3.4,0,0,0-1,2.43,3.46,3.46,0,0,0,1,2.46,3.41,3.41,0,0,0,2.45,1h0a3.46,3.46,0,0,0,2.43-1,3.38,3.38,0,0,0,.94-1.61H325.8Z" transform="translate(0 0)"/><polygon class="cls-2" points="349.71 99.86 351.89 99.86 351.89 110.78 349.71 110.78 349.71 106.22 345.67 106.22 345.67 110.78 343.48 110.78 343.48 99.86 345.67 99.86 345.67 104.04 349.71 104.04 349.71 99.86"/><polygon class="cls-2" points="373.18 110.78 367.03 104.4 367.03 110.78 364.85 110.78 364.85 99.84 365.53 99.84 371.57 105.96 371.57 99.84 373.76 99.84 373.76 110.78 373.18 110.78"/><path class="cls-2" d="M394.95,106.74a4.24,4.24,0,0,1-8.47,0V99.84h2.18v6.9a2,2,0,0,0,.61,1.45,2,2,0,0,0,1.45.59,2,2,0,0,0,1.44-.59,2.06,2.06,0,0,0,.61-1.43h0V99.84h2.18v6.9Z" transform="translate(0 0)"/><polygon class="cls-2" points="415.53 99.84 415.53 102.03 412.5 102.03 412.5 110.78 410.32 110.78 410.32 102.03 407.27 102.03 407.27 99.84 415.53 99.84"/><path class="cls-2" d="M431.1,106.15a5.29,5.29,0,0,1-1.65-.69A3,3,0,0,1,428,103a2.94,2.94,0,0,1,.8-2.23,3.8,3.8,0,0,1,2.54-1.08,5.43,5.43,0,0,1,3.28,1.09l.36.23-1.14,1.86-.39-.25a3.36,3.36,0,0,0-2.11-.75,1.66,1.66,0,0,0-1,.41.77.77,0,0,0-.19.62c0,.56.4.87,1.4,1.12l.31.09a5.76,5.76,0,0,1,2.42,1.45,3.16,3.16,0,0,1,.86,2.14,3.4,3.4,0,0,1-3.39,3.29,6.52,6.52,0,0,1-1.92-.26,6.06,6.06,0,0,1-2.6-1.65l1.59-1.5a3.78,3.78,0,0,0,2.93,1.23,1.2,1.2,0,0,0,1.2-1.11c0-.59-.67-1.14-1.81-1.53h0Z" transform="translate(0 0)"/><path class="cls-4" d="M12.42,71.09h7.49a6.63,6.63,0,0,0,5-2.14,7,7,0,0,0,2-5V20.83a7,7,0,0,0-2.07-5.06,6.71,6.71,0,0,0-5-2.1H12.42ZM39,63.66a19.09,19.09,0,0,1-5.72,13.93,18.69,18.69,0,0,1-13.8,5.78H0V1H19.51A18.67,18.67,0,0,1,33.34,6.77,19.08,19.08,0,0,1,39,20.63Z" transform="translate(0 0)"/><path class="cls-4" d="M75.59,19.45a7.07,7.07,0,0,0-7.1-7.1,7,7,0,0,0-5.06,2.07,6.79,6.79,0,0,0-2.1,5V64.52a6.79,6.79,0,0,0,2.1,5,7,7,0,0,0,5.06,2.07,7.07,7.07,0,0,0,7.1-7.1ZM68.82,0a19,19,0,0,1,14,5.78,19,19,0,0,1,5.75,13.93V64.65A19.68,19.68,0,0,1,68.82,84.36a18.84,18.84,0,0,1-13.93-5.78,19.09,19.09,0,0,1-5.72-13.93V19.71A19,19,0,0,1,55,5.75,19,19,0,0,1,68.82,0" transform="translate(0 0)"/><path class="cls-4" d="M118.46,84.29A19.52,19.52,0,0,1,98.81,64.71V1.05H111V64.58a6.8,6.8,0,0,0,2.1,5,7,7,0,0,0,5.06,2.07,7.06,7.06,0,0,0,7.1-7.1V1.05h12.94V64.71a18.7,18.7,0,0,1-5.78,13.93,19.21,19.21,0,0,1-13.93,5.65" transform="translate(0 0)"/><path class="cls-4" d="M168.16,84.42a19.68,19.68,0,0,1-19.71-19.64V19.84a19,19,0,0,1,5.78-14,19.71,19.71,0,0,1,27.86,0,19.1,19.1,0,0,1,5.72,13.93v9.4H174.93V19.58a7.18,7.18,0,0,0-7.16-7.16,6.79,6.79,0,0,0-5,2.1,7,7,0,0,0-2.07,5.06V64.65a7.07,7.07,0,0,0,7.1,7.1,7,7,0,0,0,5.06-2.06,6.76,6.76,0,0,0,2.1-5V48.49H168V36h19.78V64.78a19.63,19.63,0,0,1-19.64,19.64" transform="translate(0 0)"/><polygon class="cls-4" points="210.44 48.49 210.44 83.37 198.03 83.37 198.03 1.05 210.44 1.05 210.44 36 225.42 36 225.42 1.05 237.84 1.05 237.84 83.37 225.42 83.37 225.42 48.49 210.44 48.49"/><polygon class="cls-4" points="262.33 0.99 278.81 56.36 278.81 0.99 291.22 0.99 291.22 83.37 277.89 83.37 260.8 30.62 260.8 83.37 248.39 83.37 248.39 0.99 262.33 0.99"/><path class="cls-4" d="M328,19.45a7.07,7.07,0,0,0-7.1-7.1,7,7,0,0,0-5.06,2.07,6.79,6.79,0,0,0-2.1,5V64.52a6.79,6.79,0,0,0,2.1,5,7,7,0,0,0,5.06,2.07,7.07,7.07,0,0,0,7.1-7.1ZM321.22,0a19,19,0,0,1,14,5.78,19,19,0,0,1,5.75,13.93V64.65a19.68,19.68,0,1,1-39.35,0V19.71a19,19,0,0,1,5.78-14A19,19,0,0,1,321.22,0" transform="translate(0 0)"/><polygon class="cls-4" points="362.12 13.53 348.91 13.53 348.91 1.05 387.67 1.05 387.67 13.53 374.53 13.53 374.53 83.37 362.12 83.37 362.12 13.53"/><polygon class="cls-4" points="408.86 13.53 395.66 13.53 395.66 1.05 434.42 1.05 434.42 13.53 421.28 13.53 421.28 83.37 408.86 83.37 408.86 13.53"/><path class="cls-4" d="M483.47,62.87A23.15,23.15,0,0,1,479,77.59a16.08,16.08,0,0,1-8.54,5.85,23.32,23.32,0,0,1-6.9.92,19.52,19.52,0,0,1-12.09-3.61,20.2,20.2,0,0,1-6.34-8A32.47,32.47,0,0,1,442.41,61l11.83-.85q.79,7.2,3.81,10.43a6.36,6.36,0,0,0,5.13,2.31,7.71,7.71,0,0,0,6.5-4,10,10,0,0,0,1.25-5.46q0-5.13-4.67-10.19l-11-10.46a47.13,47.13,0,0,1-8.74-10.72,24.79,24.79,0,0,1-2.76-11.57q0-11.24,7.55-17A18.78,18.78,0,0,1,462.84,0,21,21,0,0,1,474.2,3a17.08,17.08,0,0,1,5.95,6.44,23.83,23.83,0,0,1,2.73,9.53L471,21.09a14.34,14.34,0,0,0-2.89-7.88,6.07,6.07,0,0,0-4.93-2,5.67,5.67,0,0,0-5.19,3,11.64,11.64,0,0,0-1.45,6q0,5.65,4.86,11.5A40.81,40.81,0,0,0,466.91,37q4.34,3.61,5.71,5.06a42.21,42.21,0,0,1,7.1,9.07,34.94,34.94,0,0,1,1.9,3.88,22.57,22.57,0,0,1,1.84,7.88" transform="translate(0 0)"/><path class="cls-4" d="M278,147.19c-7.88-5.13-8.07-4.85-15.95-10s-7.56-5.62-15.45-10.75c-2.68-1.75-6.87-1.09-9.56.66-7.89,5.13-8.18,4.68-16.07,9.81s-7.75,5.33-15.64,10.46c-2.69,1.75-2.5,3.88.19,5.63l15.77,10.26c7.89,5.13,7.67,5.47,15.55,10.6,2.68,1.75,7.07,2.11,9.76.36,7.88-5.13,8.14-4.52,16-9.65s7.64-5.72,15.52-10.85c2.69-1.75,2.53-4.79-.15-6.53" transform="translate(0 0)"/><polygon points="220.22 148.55 217.36 148.55 217.36 149.69 219.72 149.69 219.72 150.91 217.36 150.91 217.36 152.25 220.2 152.25 220.2 153.47 216.13 153.47 216.13 147.33 220.22 147.33 220.22 148.55"/><path d="M225,150.87a3,3,0,0,1-.93-.39,1.69,1.69,0,0,1-.79-1.39,1.64,1.64,0,0,1,.45-1.25,2.13,2.13,0,0,1,1.43-.61,3,3,0,0,1,1.84.61l.2.13-.64,1-.22-.14a1.89,1.89,0,0,0-1.18-.42.92.92,0,0,0-.54.23.43.43,0,0,0-.11.35c0,.32.23.49.79.63l.18.05a3.27,3.27,0,0,1,1.36.82,1.77,1.77,0,0,1,.48,1.2,1.91,1.91,0,0,1-1.9,1.85,3.62,3.62,0,0,1-1.08-.15,3.4,3.4,0,0,1-1.46-.93l.89-.84a2.12,2.12,0,0,0,1.65.69.68.68,0,0,0,.68-.62c0-.33-.38-.64-1-.86H225Z" transform="translate(0 0)"/><polygon points="234.31 147.33 234.31 148.55 232.61 148.55 232.61 153.47 231.38 153.47 231.38 148.55 229.67 148.55 229.67 147.33 234.31 147.33"/><rect x="236.04" y="152.33" width="1.15" height="1.15"/><path d="M245.17,149.53a.64.64,0,1,0-.64-.64.64.64,0,0,0,.64.64m-.3,1.13a1.63,1.63,0,0,1-.32-.11,1.75,1.75,0,0,1-.93-.92,1.71,1.71,0,0,1,0-1.36,1.6,1.6,0,0,1,.38-.55,1.71,1.71,0,0,1,.55-.38,1.79,1.79,0,0,1,1.35,0,1.69,1.69,0,0,1,.55.38,1.58,1.58,0,0,1,.38.55,1.74,1.74,0,0,1,0,1.36c-.09.2-2,2.83-2,2.83h2.32v1h-4.29Z" transform="translate(0 0)"/><path d="M251.52,148.91a2.11,2.11,0,0,0-.33.64,2.79,2.79,0,0,0-.13.86,2.71,2.71,0,0,0,.13.86,2.17,2.17,0,0,0,.33.65,1,1,0,0,0,.76.45,1,1,0,0,0,.75-.45,2.17,2.17,0,0,0,.33-.65,2.74,2.74,0,0,0,.13-.86,2.82,2.82,0,0,0-.13-.86,2.11,2.11,0,0,0-.33-.64,1,1,0,0,0-.75-.46,1,1,0,0,0-.76.46m3.2,1.5c0,1.76-1.1,3.18-2.45,3.18s-2.45-1.42-2.45-3.18,1.1-3.18,2.45-3.18,2.45,1.43,2.45,3.18" transform="translate(0 0)"/><polygon points="260.31 152.24 260.31 153.47 257.42 153.47 257.42 152.24 258.3 152.24 258.3 148.57 257.42 148.57 257.42 147.33 259.53 147.33 259.53 152.24 260.31 152.24"/><path d="M264.34,149.38a2.14,2.14,0,0,1,.81-.16,2.06,2.06,0,0,1,.85.18,2,2,0,0,1,.69.46,2.11,2.11,0,0,1,.64,1.54,2.15,2.15,0,0,1-.17.85,2.2,2.2,0,0,1-.48.7,2.06,2.06,0,0,1-.69.47,2.21,2.21,0,0,1-.85.18,2.14,2.14,0,0,1-.85-.18,2.09,2.09,0,0,1-.7-.47,2.28,2.28,0,0,1-.43-.61L264,152a1.18,1.18,0,1,0,0-1.24l-1-.25.76-3.18h3.28v1h-2.47Z" transform="translate(0 0)"/></g></svg>